<svg width="64" height="64" viewBox="0 0 64 64" fill="none" xmlns="http://www.w3.org/2000/svg" role="img" aria-label="소소.소 로고">
  <!-- 봉투 본체: 따뜻한 소식을 담는 편지봉투 -->
  <rect x="9" y="17.5" width="46" height="29" rx="5.5" stroke="#c49a7c" stroke-width="2.4"/>
  <!-- 봉투 플랩: 위 모서리에서 가운데로 내려오는 V자 접힘선 -->
  <path d="M10.5 19.5 L32 32 L53.5 19.5" stroke="#c49a7c" stroke-width="2.4" stroke-linecap="round" stroke-linejoin="round"/>
  <!-- 하트: 봉투 가운데 담긴 마음 -->
  <path d="M32 39.2c-0.5-0.5-5.8-3.9-7.4-6.1-1.1-1.5-1.1-3.6 0.3-4.9 1.4-1.3 3.6-1.1 4.9 0.3 0.9 1 1.6 1.9 2.2 2.6 0.6-0.7 1.3-1.6 2.2-2.6 1.3-1.4 3.5-1.6 4.9-0.3 1.4 1.3 1.4 3.4 0.3 4.9-1.6 2.2-6.9 5.6-7.4 6.1Z" fill="#dca888"/>
</svg>
