<svg width="64" height="64" viewBox="0 0 64 64" fill="none" xmlns="http://www.w3.org/2000/svg" role="img" aria-label="소소.소">
  <!-- 봉투 본체 -->
  <rect x="7" y="16" width="50" height="32" rx="6" stroke="#c08f6c" stroke-width="3.2"/>
  <!-- 봉투 플랩 V -->
  <path d="M9 18 L32 32 L55 18" stroke="#c08f6c" stroke-width="3.2" stroke-linecap="round" stroke-linejoin="round"/>
  <!-- 하트 -->
  <path d="M32 41c-0.6-0.5-6.8-4.4-8.6-7-1.3-1.8-1.3-4.3 0.4-5.8 1.7-1.5 4.2-1.3 5.7 0.4 1 1.2 1.9 2.3 2.5 3 0.6-0.7 1.5-1.8 2.5-3 1.5-1.7 4-1.9 5.7-0.4 1.7 1.5 1.7 4 0.4 5.8-1.8 2.6-8 6.5-8.6 7Z" fill="#dca888"/>
</svg>
